FOR ENGLISH, PLEASE SCROLL DOWN!

~~~~~~~~~~~~~~~~~~~~~~~~~~~~~~~~~~~~~~~~~~~~~~~~~~~~~~~~~
VERHAALLIJN:
¯¯¯¯¯¯¯¯¯¯¯¯
Een jaar na haar vlucht uit Camelot, word Morgana gevonden, gehavend en beurs in het woud, ontvoering claimend door bandieten. Oppervlakkig berouwvol en charmant, werkt ze nog steeds voor Morgheuse, voor wie ze tranen verzameld van Pendragon. Deze worden gebruikt om hem te vervloeken en de pop van Mandrake te maken. Deze maakt hem langzaam gek, en als hij begint te hallicuneren, spoken ziend, benadert Morgheuse rivaal Koning Cenred om het gehavende koninkrijk binnen te vallen en als eerste Merlin gevangen te nemen. Deze roept echter de Grote Draak op om hem te bevrijden.

~~~~~~~~~~~~~~~~~~~~~~~~~~~~~~~~~~~~~~~~~~~~~~~~~~~~~~~~~
- Titel: Merlin (2008) S03EP09 XVID (ENG+NL SUBS) RHoek 2Lions-Team
- Bron: .avi
- Genre : Fantasy
- Ondertitelingen: Engels door 'onbekend' & Nederlands door Regeer van Bierdopje.com. Superwerk weer Regeer!

IMDb: http://www.imdb.com/title/tt1199099/
Officiële website: http://www.bbc.co.uk/merlin/

~~~~~~~~~~~~~~~~~~~~~~~~~~~~~~~~~~~~~~~~~~~~~~~~~~~~~~~~~
STORY LINE:
¯¯¯¯¯¯¯¯¯¯¯
A year after her flight from Camelot, Morgana is found,dishevelled and bruised in the forest,claiming abduction by bandits. Superficially contrite and charming,she is still in league with Morghause,for whom she collects tears shed by Pendragon. These are used to curse him and fashion a doll from mandrake,which Morgana places under his bed.It slowly starts to drive him mad and, as he begins to hallucinate,seeing ghosts,Morghause approaches rival king Cenred to invade the weakened kingdom,having first taken Merlin prisoner. However Merlin summons the Great Dragon to come and free him.

~~~~~~~~~~~~~~~~~~~~~~~~~~~~~~~~~~~~~~~~~~~~~~~~~~~~~~~~~
- Title: Merlin (2008) S03EP09 XVID (ENG+NL SUBS) RHoek 2Lions-Team
- Source: .avi
- Genre : Fantasy
- Subtitles: English by 'unknown' & Dutch by Regeer from Bierdopje.com.

IMDb: http://www.imdb.com/title/tt1199099/
Official website: http://www.bbc.co.uk/merlin/

~~~~~~~~~~~~~~~~~~~~~~~~~~~~~~~~~~~~~~~~~~~~~~~~~~~~~~~~~
VIDEO AND AUDIO INFORMATION
¯¯¯¯¯¯¯¯¯¯¯¯¯¯¯¯¯¯¯¯¯¯¯¯¯¯¯¯¯¯
Video
ID                               : 0
Format                           : MPEG-4 Visual
Format profile                   : Advanced Simple@L5
Format settings, BVOP            : Yes
Format settings, QPel            : No
Format settings, GMC             : No warppoints
Format settings, Matrix          : Default (H.263)
Muxing mode                      : Packed bitstream
Codec ID                         : XVID
Codec ID/Hint                    : XviD
Duration                         : 42mn 48s
Bit rate                         : 1 002 Kbps
Width                            : 624 pixels
Height                           : 352 pixels
Display aspect ratio             : 16:9
Frame rate                       : 25.000 fps
Color space                      : YUV
Chroma subsampling               : 4:2:0
Bit depth                        : 8 bits
Scan type                        : Progressive
Bits/(Pixel*Frame)               : 0.183
Stream size                      : 307 MiB (88%)
Writing library                  : XviD 1.2.1 (UTC 2008-12-04)

Audio
ID                               : 1
Format                           : MPEG Audio
Format version                   : Version 1
Format profile                   : Layer 3
Mode                             : Joint stereo
Mode extension                   : MS Stereo
Codec ID                         : 55
Codec ID/Hint                    : MP3
Duration                         : 42mn 48s
Bit rate mode                    : Variable
Bit rate                         : 192 Kbps
Channel(s)                       : 2 channels
Sampling rate                    : 48.0 KHz
Bit depth                        : 16 bits
Stream size                      : 39.7 MiB (11%)
Alignment                        : Aligned on interleaves
Interleave, duration             : 24 ms (0.60 video frame)

*****************************************
Brought to you by RHoek from 2Lions-Team
******************************************